<svg xmlns="http://www.w3.org/2000/svg" viewBox="0 0 640 512" width="24" height="24" fill="currentColor">
  <path d="M392.8 33.7c-17.1-4.3-34.4 6.3-38.7 23.4L212.2 456c-4.3 17.1 6.3 34.4 23.4 38.7s34.4-6.3 38.7-23.4L431.2 55.7c4.3-17.1-6.3-34.4-23.4-38.7zM168 124c-12.5-12.5-32.8-12.5-45.3 0l-112 112c-12.5 12.5-12.5 32.8 0 45.3l112 112c12.5 12.5 32.8 12.5 45.3 0s12.5-32.8 0-45.3L77.3 256l90.7-90.7c12.5-12.5 12.5-32.8 0-45.3zm304 0c-12.5 12.5-12.5 32.8 0 45.3l90.7 90.7-90.7 90.7c-12.5 12.5-12.5 32.8 0 45.3s32.8 12.5 45.3 0l112-112c12.5-12.5 12.5-32.8 0-45.3l-112-112c-12.5-12.5-32.8-12.5-45.3 0z"/>
</svg>